<svg width="168" height="289" viewBox="0 0 168 289" fill="none" xmlns="http://www.w3.org/2000/svg">
<path fill-rule="evenodd" clip-rule="evenodd" d="M0 -1H168V190H0V-1Z" fill="#4AF6CD"/>
<path d="M61.3 139.06L69.76 140.2V150.04H103V161.14H69.76V171.58H61.3V139.06ZM60.22 120.597C60.22 114.557 62.14 109.857 65.98 106.497C69.82 103.137 75.2 101.457 82.12 101.457C86.64 101.457 90.56 102.217 93.88 103.737C97.16 105.217 99.68 107.397 101.44 110.277C103.2 113.157 104.08 116.597 104.08 120.597C104.08 126.637 102.16 131.337 98.32 134.697C94.48 138.017 89.08 139.677 82.12 139.677C77.6 139.677 73.7 138.937 70.42 137.457C67.14 135.937 64.62 133.757 62.86 130.917C61.1 128.037 60.22 124.597 60.22 120.597ZM68.2 120.597C68.2 123.197 69.28 125.117 71.44 126.357C73.6 127.557 77.16 128.157 82.12 128.157C87.08 128.157 90.66 127.537 92.86 126.297C95.02 125.057 96.1 123.157 96.1 120.597C96.1 117.957 95.02 116.037 92.86 114.837C90.7 113.637 87.12 113.037 82.12 113.037C77.16 113.037 73.6 113.637 71.44 114.837C69.28 116.037 68.2 117.957 68.2 120.597ZM89.02 63.6311C91.9 63.6311 94.48 64.2711 96.76 65.5511C99.04 66.7911 100.84 68.6711 102.16 71.1911C103.44 73.7111 104.08 76.7911 104.08 80.4311C104.08 85.9511 102.74 90.1311 100.06 92.9711C97.34 95.8111 93.66 97.2311 89.02 97.2311H61.3V86.1311H88.66C91.18 86.1311 93.04 85.6911 94.24 84.8111C95.4 83.8911 95.98 82.4311 95.98 80.4311C95.98 78.4311 95.38 76.9911 94.18 76.1111C92.98 75.2311 91.14 74.7911 88.66 74.7911H61.3V63.6311H89.02ZM87.64 43.6234V46.6834H103V57.7834H61.3V43.3234C61.3 37.4434 62.36 33.0634 64.48 30.1834C66.6 27.2634 69.86 25.8034 74.26 25.8034C76.9 25.8034 79.1 26.4234 80.86 27.6634C82.62 28.8634 84.2 30.8034 85.6 33.4834L103 23.1034V35.4634L87.64 43.6234ZM80.08 46.6834V42.9634C80.08 39.1234 78.14 37.2034 74.26 37.2034C72.46 37.2034 71.14 37.7434 70.3 38.8234C69.46 39.8634 69.04 41.4434 69.04 43.5634V46.6834H80.08Z" fill="white"/>
<path d="M62.22 266.92C62.22 261.36 63.98 256.58 67.5 252.58L73.2 258.04C72.12 259.56 71.34 260.94 70.86 262.18C70.34 263.38 70.08 264.76 70.08 266.32C70.08 269.32 71.24 271.68 73.56 273.4C75.88 275.08 79.42 275.92 84.18 275.92C87.66 275.92 90.42 275.64 92.46 275.08C94.46 274.52 95.9 273.68 96.78 272.56C97.66 271.4 98.1 269.92 98.1 268.12C98.1 266.32 97.72 264.68 96.96 263.2H88.38V267.94L80.76 269.02V252.46H101.52C102.96 254.62 104.08 257.06 104.88 259.78C105.68 262.5 106.08 265.18 106.08 267.82C106.08 280.86 98.76 287.38 84.12 287.38C79.56 287.38 75.64 286.5 72.36 284.74C69.04 282.94 66.52 280.5 64.8 277.42C63.08 274.34 62.22 270.84 62.22 266.92ZM62.22 229.335C62.22 223.295 64.14 218.595 67.98 215.235C71.82 211.875 77.2 210.195 84.12 210.195C88.64 210.195 92.56 210.955 95.88 212.475C99.16 213.955 101.68 216.135 103.44 219.015C105.2 221.895 106.08 225.335 106.08 229.335C106.08 235.375 104.16 240.075 100.32 243.435C96.48 246.755 91.08 248.415 84.12 248.415C79.6 248.415 75.7 247.675 72.42 246.195C69.14 244.675 66.62 242.495 64.86 239.655C63.1 236.775 62.22 233.335 62.22 229.335ZM70.2 229.335C70.2 231.935 71.28 233.855 73.44 235.095C75.6 236.295 79.16 236.895 84.12 236.895C89.08 236.895 92.66 236.275 94.86 235.035C97.02 233.795 98.1 231.895 98.1 229.335C98.1 226.695 97.02 224.775 94.86 223.575C92.7 222.375 89.12 221.775 84.12 221.775C79.16 221.775 75.6 222.375 73.44 223.575C71.28 224.775 70.2 226.695 70.2 229.335Z" fill="white"/>
<rect width="20" height="0.810815" transform="matrix(0.00460082 -0.999989 -0.999989 -0.00460082 84.7617 200.076)" fill="white"/>
</svg>
