<svg width="1001" height="496" viewBox="0 0 1001 496" fill="none" xmlns="http://www.w3.org/2000/svg">
<g clip-path="url(#clip0)">
<g opacity="0.29827">
<path opacity="0.29827" d="M1008.08 163.448L443.182 -356.858V-747.19L28.1096 -770C24.9043 -762.456 4.36709 -740.714 7.57176 -728.596C11.43 -714.102 30.8387 -718.735 36.4776 -709.409C43.0661 -698.42 31.7291 -653.749 28.3457 -640.86C21.8759 -616.445 7.09676 -596.665 2.82235 -572.25C-4.35982 -531.263 10.1824 -534.53 37.7242 -508.927C84.141 -465.742 46.9244 -420.952 58.6176 -370.223C68.1146 -328.878 109.605 -307.554 124.8 -266.211C136.553 -234.37 152.697 -226.233 177.746 -202.947C177.153 -217.084 164.51 -258.785 188.253 -255.102C211.817 -251.478 202.736 -216.669 207.247 -202.115C211.045 -189.997 237.933 -165.761 215.616 -154.593C208.196 -150.91 187.066 -165.582 178.577 -169.503C184.572 -150.791 180.774 -131.367 190.271 -113.487C201.608 -92.162 213.835 -100.359 228.853 -88.7754C244.344 -76.8355 242.683 -63.1137 235.797 -45.0554C228.615 -26.2247 221.196 -29.1352 232.592 -6.44342C240.843 9.95119 254.85 30.7421 266.9 43.2164C273.904 50.4634 281.502 52.1267 288.506 61.3932C294.323 69.1155 292.067 79.2142 299.012 86.1638C310.883 98.1037 331.006 98.282 340.384 113.904C350.831 131.309 338.96 144.437 369.706 142.833C371.309 177.643 377.897 209.185 377.541 243.994C394.695 250.825 422.414 242.687 440.399 239.063C458.266 263.18 481.355 246.429 501.774 259.558C510.678 265.26 508.837 279.517 514.239 284.506C525.339 294.723 533.529 288.308 547.301 291.872C557.51 294.486 565.404 301.97 575.138 304.703C584.338 307.257 599.475 301.258 606.301 309.396C614.492 319.138 600.78 336.958 613.127 344.799C623.395 351.333 638.115 335.77 648.088 338.027C659.721 340.7 693.079 371.174 701.271 381.212C710.59 392.677 719.969 414.062 725.25 428.793C733.501 451.841 732.373 463.127 749.408 479.998C760.27 490.75 749.942 491.522 767.63 494.67C779.204 496.749 794.518 488.374 806.212 487.067C830.549 484.394 855.122 489.027 879.102 484.453C901.421 480.176 922.729 473.166 945.64 469.899C965.465 467.048 1000.37 469.246 1017.94 459.801C1036.99 449.643 1038.71 426.654 1011.17 430.932C1008.97 416.26 1018.77 396.003 1007.85 385.847C1023.04 365.056 1028.56 350.384 1030.93 324.959C1032 313.792 1032.48 301.436 1038 292.05C1043.4 282.783 1058.59 277.259 1061.56 269.299C1066.13 256.943 1058.83 251.419 1053.25 244.528C1049.69 240.073 1039.54 242.212 1036.63 238.291C1031.23 231.103 1036.57 223.678 1033.6 216.431C1024.94 195.462 1014.61 187.205 1008.08 163.444C1008.26 167.424 1008.44 171.463 1008.2 175.384" stroke="white" stroke-width="2" stroke-linecap="round" stroke-linejoin="round"/>
</g>
<path d="M729.114 83.9394C720.546 107.321 740.614 115.526 756.675 130.807C761.434 135.336 761.888 142.817 756.879 147.342C746.107 157.074 705.264 142.917 707.854 155.745C710.53 168.994 745.061 187.531 746.618 188.799C760.284 199.932 764.735 228.174 757.208 243.658C751.852 254.676 716.342 250.962 705.172 247.293C632.024 223.266 664.985 226.131 582.817 218.67C576.527 218.099 569.935 217.806 563.894 219.65C557.671 221.549 557.869 229.339 559.957 233.55C566.876 247.506 597.849 271.178 589.514 289.523C586.956 295.152 580.963 298.707 578.264 304.27C576.151 308.627 576.385 313.772 575.445 318.523" stroke="white" stroke-width="2"/>
<path fill-rule="evenodd" clip-rule="evenodd" d="M573.5 326C577.09 326 580 323.09 580 319.5C580 315.91 577.09 313 573.5 313C569.91 313 567 315.91 567 319.5C567 323.09 569.91 326 573.5 326Z" fill="#4AF6CD"/>
<path fill-rule="evenodd" clip-rule="evenodd" d="M661 363C662.657 363 664 361.657 664 360C664 358.343 662.657 357 661 357C659.343 357 658 358.343 658 360C658 361.657 659.343 363 661 363Z" fill="#4AF6CD"/>
<path fill-rule="evenodd" clip-rule="evenodd" d="M725 471C726.657 471 728 469.657 728 468C728 466.343 726.657 465 725 465C723.343 465 722 466.343 722 468C722 469.657 723.343 471 725 471Z" fill="#4AF6CD"/>
<path fill-rule="evenodd" clip-rule="evenodd" d="M365 228C366.657 228 368 226.657 368 225C368 223.343 366.657 222 365 222C363.343 222 362 223.343 362 225C362 226.657 363.343 228 365 228Z" fill="#4AF6CD"/>
<path fill-rule="evenodd" clip-rule="evenodd" d="M729.5 91C733.09 91 736 88.0899 736 84.5C736 80.9101 733.09 78 729.5 78C725.91 78 723 80.9101 723 84.5C723 88.0899 725.91 91 729.5 91Z" fill="#4AF6CD"/>
<path d="M526.409 75.976L526.249 77.272H523.193V87H521.673V77.272H518.537V75.976H526.409ZM533.576 82.536C533.576 82.7813 533.565 83.032 533.544 83.288H528.168C528.232 84.216 528.466 84.8987 528.872 85.336C529.277 85.7733 529.8 85.992 530.44 85.992C530.845 85.992 531.218 85.9333 531.56 85.816C531.901 85.6987 532.258 85.512 532.632 85.256L533.272 86.136C532.376 86.84 531.394 87.192 530.328 87.192C529.154 87.192 528.237 86.808 527.576 86.04C526.925 85.272 526.6 84.216 526.6 82.872C526.6 81.9973 526.738 81.224 527.016 80.552C527.304 79.8693 527.709 79.336 528.232 78.952C528.765 78.568 529.389 78.376 530.104 78.376C531.224 78.376 532.082 78.744 532.68 79.48C533.277 80.216 533.576 81.2347 533.576 82.536ZM532.12 82.104C532.12 81.272 531.954 80.6373 531.624 80.2C531.293 79.7627 530.797 79.544 530.136 79.544C528.93 79.544 528.274 80.4293 528.168 82.2H532.12V82.104ZM542.246 78.568L539.686 82.472L542.55 87H540.806L538.47 83.112H537.398V87H535.926V78.568H537.398V81.96H538.502L540.63 78.568H542.246ZM547.599 87.048C547.268 88.0293 546.804 88.8027 546.207 89.368C545.62 89.944 544.778 90.2907 543.679 90.408L543.519 89.256C544.074 89.16 544.516 89.0213 544.847 88.84C545.178 88.6587 545.439 88.424 545.631 88.136C545.834 87.8587 546.02 87.48 546.191 87H545.695L542.863 78.568H544.431L546.687 85.928L548.895 78.568H550.415L547.599 87.048ZM561.794 85.816H563.074V89.4H561.874L561.634 87H552.098V78.568H553.538V85.816H556.242V78.568H557.65V85.816H560.354V78.568H561.794V85.816ZM571.044 82.536C571.044 82.7813 571.034 83.032 571.012 83.288H565.636C565.7 84.216 565.935 84.8987 566.34 85.336C566.746 85.7733 567.268 85.992 567.908 85.992C568.314 85.992 568.687 85.9333 569.028 85.816C569.37 85.6987 569.727 85.512 570.1 85.256L570.74 86.136C569.844 86.84 568.863 87.192 567.796 87.192C566.623 87.192 565.706 86.808 565.044 86.04C564.394 85.272 564.068 84.216 564.068 82.872C564.068 81.9973 564.207 81.224 564.484 80.552C564.772 79.8693 565.178 79.336 565.7 78.952C566.234 78.568 566.858 78.376 567.572 78.376C568.692 78.376 569.551 78.744 570.148 79.48C570.746 80.216 571.044 81.2347 571.044 82.536ZM569.588 82.104C569.588 81.272 569.423 80.6373 569.092 80.2C568.762 79.7627 568.266 79.544 567.604 79.544C566.399 79.544 565.743 80.4293 565.636 82.2H569.588V82.104ZM579.763 82.536C579.763 82.7813 579.752 83.032 579.731 83.288H574.355C574.419 84.216 574.654 84.8987 575.059 85.336C575.464 85.7733 575.987 85.992 576.627 85.992C577.032 85.992 577.406 85.9333 577.747 85.816C578.088 85.6987 578.446 85.512 578.819 85.256L579.459 86.136C578.563 86.84 577.582 87.192 576.515 87.192C575.342 87.192 574.424 86.808 573.763 86.04C573.112 85.272 572.787 84.216 572.787 82.872C572.787 81.9973 572.926 81.224 573.203 80.552C573.491 79.8693 573.896 79.336 574.419 78.952C574.952 78.568 575.576 78.376 576.291 78.376C577.411 78.376 578.27 78.744 578.867 79.48C579.464 80.216 579.763 81.2347 579.763 82.536ZM578.307 82.104C578.307 81.272 578.142 80.6373 577.811 80.2C577.48 79.7627 576.984 79.544 576.323 79.544C575.118 79.544 574.462 80.4293 574.355 82.2H578.307V82.104ZM594.604 87H593.164L592.78 83.016C592.737 82.6 592.711 82.1413 592.7 81.64C592.689 81.128 592.684 80.5787 592.684 79.992L590.764 86.072H589.372L587.58 80.008C587.58 81.416 587.559 82.4133 587.516 83L587.212 87H585.788L586.54 78.568H588.444L590.092 84.6L591.9 78.568H593.836L594.604 87ZM603.451 82.536C603.451 82.7813 603.44 83.032 603.419 83.288H598.043C598.107 84.216 598.341 84.8987 598.747 85.336C599.152 85.7733 599.675 85.992 600.315 85.992C600.72 85.992 601.093 85.9333 601.435 85.816C601.776 85.6987 602.133 85.512 602.507 85.256L603.147 86.136C602.251 86.84 601.269 87.192 600.203 87.192C599.029 87.192 598.112 86.808 597.451 86.04C596.8 85.272 596.475 84.216 596.475 82.872C596.475 81.9973 596.613 81.224 596.891 80.552C597.179 79.8693 597.584 79.336 598.107 78.952C598.64 78.568 599.264 78.376 599.979 78.376C601.099 78.376 601.957 78.744 602.555 79.48C603.152 80.216 603.451 81.2347 603.451 82.536ZM601.995 82.104C601.995 81.272 601.829 80.6373 601.499 80.2C601.168 79.7627 600.672 79.544 600.011 79.544C598.805 79.544 598.149 80.4293 598.043 82.2H601.995V82.104ZM608.873 78.376C609.375 78.376 609.833 78.4507 610.249 78.6C610.665 78.7387 611.065 78.968 611.449 79.288L610.745 80.216C610.447 80.0027 610.153 79.848 609.865 79.752C609.588 79.6453 609.279 79.592 608.937 79.592C608.255 79.592 607.721 79.864 607.337 80.408C606.964 80.952 606.777 81.7573 606.777 82.824C606.777 83.8907 606.964 84.68 607.337 85.192C607.711 85.6933 608.244 85.944 608.937 85.944C609.268 85.944 609.572 85.896 609.849 85.8C610.127 85.6933 610.436 85.528 610.777 85.304L611.449 86.264C610.681 86.8827 609.823 87.192 608.873 87.192C607.732 87.192 606.831 86.808 606.169 86.04C605.519 85.272 605.193 84.2107 605.193 82.856C605.193 81.96 605.343 81.176 605.641 80.504C605.94 79.832 606.361 79.3093 606.905 78.936C607.46 78.5627 608.116 78.376 608.873 78.376ZM619.138 78.568L618.962 79.768H616.258V87H614.786V79.768H612.002V78.568H619.138ZM623.422 78.376C624.606 78.376 625.524 78.7707 626.174 79.56C626.836 80.3493 627.166 81.4213 627.166 82.776C627.166 83.6507 627.017 84.424 626.718 85.096C626.42 85.7573 625.988 86.2747 625.422 86.648C624.857 87.0107 624.185 87.192 623.406 87.192C622.222 87.192 621.3 86.7973 620.638 86.008C619.977 85.2187 619.646 84.1467 619.646 82.792C619.646 81.9173 619.796 81.1493 620.094 80.488C620.393 79.816 620.825 79.2987 621.39 78.936C621.956 78.5627 622.633 78.376 623.422 78.376ZM623.422 79.56C621.961 79.56 621.23 80.6373 621.23 82.792C621.23 84.936 621.956 86.008 623.406 86.008C624.857 86.008 625.582 84.9307 625.582 82.776C625.582 80.632 624.862 79.56 623.422 79.56ZM634.526 87V79.768H631.07V87H629.598V78.568H635.998V87H634.526ZM642.204 78.376C643.388 78.376 644.305 78.7707 644.956 79.56C645.617 80.3493 645.948 81.4213 645.948 82.776C645.948 83.6507 645.798 84.424 645.5 85.096C645.201 85.7573 644.769 86.2747 644.204 86.648C643.638 87.0107 642.966 87.192 642.188 87.192C641.004 87.192 640.081 86.7973 639.42 86.008C638.758 85.2187 638.428 84.1467 638.428 82.792C638.428 81.9173 638.577 81.1493 638.876 80.488C639.174 79.816 639.606 79.2987 640.172 78.936C640.737 78.5627 641.414 78.376 642.204 78.376ZM642.204 79.56C640.742 79.56 640.012 80.6373 640.012 82.792C640.012 84.936 640.737 86.008 642.188 86.008C643.638 86.008 644.364 84.9307 644.364 82.776C644.364 80.632 643.644 79.56 642.204 79.56ZM654.399 78.568V87H652.927V79.768H650.319L650.079 82.584C649.983 83.7253 649.86 84.5787 649.711 85.144C649.572 85.7093 649.348 86.1467 649.039 86.456C648.74 86.7547 648.282 87 647.663 87.192L647.295 86.024C647.658 85.896 647.914 85.7307 648.063 85.528C648.212 85.3253 648.324 85.016 648.399 84.6C648.474 84.184 648.554 83.4587 648.639 82.424L648.975 78.568H654.399ZM660.61 78.376C661.794 78.376 662.711 78.7707 663.362 79.56C664.023 80.3493 664.354 81.4213 664.354 82.776C664.354 83.6507 664.205 84.424 663.906 85.096C663.607 85.7573 663.175 86.2747 662.61 86.648C662.045 87.0107 661.373 87.192 660.594 87.192C659.41 87.192 658.487 86.7973 657.826 86.008C657.165 85.2187 656.834 84.1467 656.834 82.792C656.834 81.9173 656.983 81.1493 657.282 80.488C657.581 79.816 658.013 79.2987 658.578 78.936C659.143 78.5627 659.821 78.376 660.61 78.376ZM660.61 79.56C659.149 79.56 658.418 80.6373 658.418 82.792C658.418 84.936 659.143 86.008 660.594 86.008C662.045 86.008 662.77 84.9307 662.77 82.776C662.77 80.632 662.05 79.56 660.61 79.56ZM676.005 78.568L673.893 82.52L676.309 87H674.693L672.693 83.176H671.573V87H670.165V83.176H669.061L667.045 87H665.445L667.861 82.52L665.749 78.568H667.285L669.045 82.024H670.165V78.568H671.573V82.024H672.709L674.485 78.568H676.005ZM684.372 82.536C684.372 82.7813 684.362 83.032 684.34 83.288H678.964C679.028 84.216 679.263 84.8987 679.668 85.336C680.074 85.7733 680.596 85.992 681.236 85.992C681.642 85.992 682.015 85.9333 682.356 85.816C682.698 85.6987 683.055 85.512 683.428 85.256L684.068 86.136C683.172 86.84 682.191 87.192 681.124 87.192C679.951 87.192 679.034 86.808 678.372 86.04C677.722 85.272 677.396 84.216 677.396 82.872C677.396 81.9973 677.535 81.224 677.812 80.552C678.1 79.8693 678.506 79.336 679.028 78.952C679.562 78.568 680.186 78.376 680.9 78.376C682.02 78.376 682.879 78.744 683.476 79.48C684.074 80.216 684.372 81.2347 684.372 82.536ZM682.916 82.104C682.916 81.272 682.751 80.6373 682.42 80.2C682.09 79.7627 681.594 79.544 680.932 79.544C679.727 79.544 679.071 80.4293 678.964 82.2H682.916V82.104ZM691.699 87V83.288H688.195V87H686.723V78.568H688.195V82.104H691.699V78.568H693.171V87H691.699ZM702.767 87H701.312V83.192C701.312 82.552 701.333 81.944 701.376 81.368C701.418 80.792 701.456 80.4133 701.488 80.232L697.952 87H696.208V78.568H697.664V82.376C697.664 82.9413 697.642 83.528 697.6 84.136C697.557 84.7333 697.525 85.1173 697.504 85.288L700.992 78.568H702.767V87ZM712.169 82.536C712.169 82.7813 712.159 83.032 712.137 83.288H706.761C706.825 84.216 707.06 84.8987 707.465 85.336C707.871 85.7733 708.393 85.992 709.033 85.992C709.439 85.992 709.812 85.9333 710.153 85.816C710.495 85.6987 710.852 85.512 711.225 85.256L711.865 86.136C710.969 86.84 709.988 87.192 708.921 87.192C707.748 87.192 706.831 86.808 706.169 86.04C705.519 85.272 705.193 84.216 705.193 82.872C705.193 81.9973 705.332 81.224 705.609 80.552C705.897 79.8693 706.303 79.336 706.825 78.952C707.359 78.568 707.983 78.376 708.697 78.376C709.817 78.376 710.676 78.744 711.273 79.48C711.871 80.216 712.169 81.2347 712.169 82.536ZM710.713 82.104C710.713 81.272 710.548 80.6373 710.217 80.2C709.887 79.7627 709.391 79.544 708.729 79.544C707.524 79.544 706.868 80.4293 706.761 82.2H710.713V82.104Z" fill="white"/>
<path d="M523.143 311.976L522.983 313.272H519.927V323H518.407V313.272H515.271V311.976H523.143ZM527.11 314.376C528.294 314.376 529.211 314.771 529.862 315.56C530.523 316.349 530.854 317.421 530.854 318.776C530.854 319.651 530.705 320.424 530.406 321.096C530.107 321.757 529.675 322.275 529.11 322.648C528.545 323.011 527.873 323.192 527.094 323.192C525.91 323.192 524.987 322.797 524.326 322.008C523.665 321.219 523.334 320.147 523.334 318.792C523.334 317.917 523.483 317.149 523.782 316.488C524.081 315.816 524.513 315.299 525.078 314.936C525.643 314.563 526.321 314.376 527.11 314.376ZM527.11 315.56C525.649 315.56 524.918 316.637 524.918 318.792C524.918 320.936 525.643 322.008 527.094 322.008C528.545 322.008 529.27 320.931 529.27 318.776C529.27 316.632 528.55 315.56 527.11 315.56ZM539.606 314.568L537.046 318.472L539.91 323H538.166L535.83 319.112H534.758V323H533.286V314.568H534.758V317.96H535.862L537.99 314.568H539.606ZM548.142 323H546.687V319.192C546.687 318.552 546.708 317.944 546.751 317.368C546.793 316.792 546.831 316.413 546.863 316.232L543.327 323H541.583V314.568H543.039V318.376C543.039 318.941 543.017 319.528 542.975 320.136C542.932 320.733 542.9 321.117 542.879 321.288L546.367 314.568H548.142V323ZM554.344 314.376C555.528 314.376 556.446 314.771 557.096 315.56C557.758 316.349 558.088 317.421 558.088 318.776C558.088 319.651 557.939 320.424 557.64 321.096C557.342 321.757 556.91 322.275 556.344 322.648C555.779 323.011 555.107 323.192 554.328 323.192C553.144 323.192 552.222 322.797 551.56 322.008C550.899 321.219 550.568 320.147 550.568 318.792C550.568 317.917 550.718 317.149 551.016 316.488C551.315 315.816 551.747 315.299 552.312 314.936C552.878 314.563 553.555 314.376 554.344 314.376ZM554.344 315.56C552.883 315.56 552.152 316.637 552.152 318.792C552.152 320.936 552.878 322.008 554.328 322.008C555.779 322.008 556.504 320.931 556.504 318.776C556.504 316.632 555.784 315.56 554.344 315.56Z" fill="#FFFF4C"/>
</g>
<defs>
<clipPath id="clip0">
<rect width="1001" height="496" fill="white"/>
</clipPath>
</defs>
</svg>
