 <svg width="1001" height="496" viewBox="0 0 1001 496" fill="none" xmlns="http://www.w3.org/2000/svg">
<g clip-path="url(#clip0)">
<g opacity="0.29827">
<path opacity="0.29827" d="M1008.08 163.448L443.182 -356.858V-747.19L28.1096 -770C24.9043 -762.456 4.36709 -740.714 7.57176 -728.596C11.43 -714.102 30.8387 -718.735 36.4776 -709.409C43.0661 -698.42 31.7291 -653.749 28.3457 -640.86C21.8759 -616.445 7.09676 -596.665 2.82235 -572.25C-4.35982 -531.263 10.1824 -534.53 37.7242 -508.927C84.141 -465.742 46.9244 -420.952 58.6176 -370.223C68.1146 -328.878 109.605 -307.554 124.8 -266.211C136.553 -234.37 152.697 -226.233 177.746 -202.947C177.153 -217.084 164.51 -258.785 188.253 -255.102C211.817 -251.478 202.736 -216.669 207.247 -202.115C211.045 -189.997 237.933 -165.761 215.616 -154.593C208.196 -150.91 187.066 -165.582 178.577 -169.503C184.572 -150.791 180.774 -131.367 190.271 -113.487C201.608 -92.162 213.835 -100.359 228.853 -88.7754C244.344 -76.8355 242.683 -63.1137 235.797 -45.0554C228.615 -26.2247 221.196 -29.1352 232.592 -6.44342C240.843 9.95119 254.85 30.7421 266.9 43.2164C273.904 50.4634 281.502 52.1267 288.506 61.3932C294.323 69.1155 292.067 79.2142 299.012 86.1638C310.883 98.1037 331.006 98.282 340.384 113.904C350.831 131.309 338.96 144.437 369.706 142.833C371.309 177.643 377.897 209.185 377.541 243.994C394.695 250.825 422.414 242.687 440.399 239.063C458.266 263.18 481.355 246.429 501.774 259.558C510.678 265.26 508.837 279.517 514.239 284.506C525.339 294.723 533.529 288.308 547.301 291.872C557.51 294.486 565.404 301.97 575.138 304.703C584.338 307.257 599.475 301.258 606.301 309.396C614.492 319.138 600.78 336.958 613.127 344.799C623.395 351.333 638.115 335.77 648.088 338.027C659.721 340.7 693.079 371.174 701.271 381.212C710.59 392.677 719.969 414.062 725.25 428.793C733.501 451.841 732.373 463.127 749.408 479.998C760.27 490.75 749.942 491.522 767.63 494.67C779.204 496.749 794.518 488.374 806.212 487.067C830.549 484.394 855.122 489.027 879.102 484.453C901.421 480.176 922.729 473.166 945.64 469.899C965.465 467.048 1000.37 469.246 1017.94 459.801C1036.99 449.643 1038.71 426.654 1011.17 430.932C1008.97 416.26 1018.77 396.003 1007.85 385.847C1023.04 365.056 1028.56 350.384 1030.93 324.959C1032 313.792 1032.48 301.436 1038 292.05C1043.4 282.783 1058.59 277.259 1061.56 269.299C1066.13 256.943 1058.83 251.419 1053.25 244.528C1049.69 240.073 1039.54 242.212 1036.63 238.291C1031.23 231.103 1036.57 223.678 1033.6 216.431C1024.94 195.462 1014.61 187.205 1008.08 163.444C1008.26 167.424 1008.44 171.463 1008.2 175.384" stroke="white" stroke-width="2" stroke-linecap="round" stroke-linejoin="round"/>
</g>
<path class="line-animation line-animation-1" d="M724 89C699.655 107.581 724.893 126.471 742.253 153.759C747.398 161.845 744.516 170.025 734.657 171.278C713.456 173.974 657.492 130.541 655.335 145.833C653.108 161.627 642.316 176.189 670.686 193.689C686.354 214.943 646.566 199.711 627.597 210.721C614.1 218.554 614.083 174.867 598.681 163.201C497.816 86.8097 560.135 164.301 433.175 124.54C423.787 119.542 413.802 114.626 403.641 112.34C393.174 109.986 389.752 118.31 390.945 124.195C394.896 143.699 431.149 190.23 409.571 203.681C402.95 207.808 388.454 205.534 381.648 209.493C376.317 212.594 374.216 218.164 370.5 222.5" stroke="white" stroke-width="2"/>
<path class="animated fadeIn delay-1s" fill-rule="evenodd" clip-rule="evenodd" d="M366.5 234C370.09 234 373 231.09 373 227.5C373 223.91 370.09 221 366.5 221C362.91 221 360 223.91 360 227.5C360 231.09 362.91 234 366.5 234Z" fill="#4AF6CD"/>
<path class="animated fadeIn delay-2s" fill-rule="evenodd" clip-rule="evenodd" d="M661 363C662.657 363 664 361.657 664 360C664 358.343 662.657 357 661 357C659.343 357 658 358.343 658 360C658 361.657 659.343 363 661 363Z" fill="#4AF6CD"/>
<path class="animated fadeIn delay-3s" fill-rule="evenodd" clip-rule="evenodd" d="M725 471C726.657 471 728 469.657 728 468C728 466.343 726.657 465 725 465C723.343 465 722 466.343 722 468C722 469.657 723.343 471 725 471Z" fill="#4AF6CD"/>
<path class="animated fadeIn delay-5s" fill-rule="evenodd" clip-rule="evenodd" d="M572 317C573.657 317 575 315.657 575 314C575 312.343 573.657 311 572 311C570.343 311 569 312.343 569 314C569 315.657 570.343 317 572 317Z" fill="#4AF6CD"/>
<path class="animated fadeIn delay-4s" fill-rule="evenodd" clip-rule="evenodd" d="M729.5 91C733.09 91 736 88.0899 736 84.5C736 80.9101 733.09 78 729.5 78C725.91 78 723 80.9101 723 84.5C723 88.0899 725.91 91 729.5 91Z" fill="#4AF6CD"/>
<path class="animated fadeIn delay-1s" d="M526.409 75.976L526.249 77.272H523.193V87H521.673V77.272H518.537V75.976H526.409ZM533.576 82.536C533.576 82.7813 533.565 83.032 533.544 83.288H528.168C528.232 84.216 528.466 84.8987 528.872 85.336C529.277 85.7733 529.8 85.992 530.44 85.992C530.845 85.992 531.218 85.9333 531.56 85.816C531.901 85.6987 532.258 85.512 532.632 85.256L533.272 86.136C532.376 86.84 531.394 87.192 530.328 87.192C529.154 87.192 528.237 86.808 527.576 86.04C526.925 85.272 526.6 84.216 526.6 82.872C526.6 81.9973 526.738 81.224 527.016 80.552C527.304 79.8693 527.709 79.336 528.232 78.952C528.765 78.568 529.389 78.376 530.104 78.376C531.224 78.376 532.082 78.744 532.68 79.48C533.277 80.216 533.576 81.2347 533.576 82.536ZM532.12 82.104C532.12 81.272 531.954 80.6373 531.624 80.2C531.293 79.7627 530.797 79.544 530.136 79.544C528.93 79.544 528.274 80.4293 528.168 82.2H532.12V82.104ZM542.246 78.568L539.686 82.472L542.55 87H540.806L538.47 83.112H537.398V87H535.926V78.568H537.398V81.96H538.502L540.63 78.568H542.246ZM547.599 87.048C547.268 88.0293 546.804 88.8027 546.207 89.368C545.62 89.944 544.778 90.2907 543.679 90.408L543.519 89.256C544.074 89.16 544.516 89.0213 544.847 88.84C545.178 88.6587 545.439 88.424 545.631 88.136C545.834 87.8587 546.02 87.48 546.191 87H545.695L542.863 78.568H544.431L546.687 85.928L548.895 78.568H550.415L547.599 87.048ZM561.794 85.816H563.074V89.4H561.874L561.634 87H552.098V78.568H553.538V85.816H556.242V78.568H557.65V85.816H560.354V78.568H561.794V85.816ZM571.044 82.536C571.044 82.7813 571.034 83.032 571.012 83.288H565.636C565.7 84.216 565.935 84.8987 566.34 85.336C566.746 85.7733 567.268 85.992 567.908 85.992C568.314 85.992 568.687 85.9333 569.028 85.816C569.37 85.6987 569.727 85.512 570.1 85.256L570.74 86.136C569.844 86.84 568.863 87.192 567.796 87.192C566.623 87.192 565.706 86.808 565.044 86.04C564.394 85.272 564.068 84.216 564.068 82.872C564.068 81.9973 564.207 81.224 564.484 80.552C564.772 79.8693 565.178 79.336 565.7 78.952C566.234 78.568 566.858 78.376 567.572 78.376C568.692 78.376 569.551 78.744 570.148 79.48C570.746 80.216 571.044 81.2347 571.044 82.536ZM569.588 82.104C569.588 81.272 569.423 80.6373 569.092 80.2C568.762 79.7627 568.266 79.544 567.604 79.544C566.399 79.544 565.743 80.4293 565.636 82.2H569.588V82.104ZM579.763 82.536C579.763 82.7813 579.752 83.032 579.731 83.288H574.355C574.419 84.216 574.654 84.8987 575.059 85.336C575.464 85.7733 575.987 85.992 576.627 85.992C577.032 85.992 577.406 85.9333 577.747 85.816C578.088 85.6987 578.446 85.512 578.819 85.256L579.459 86.136C578.563 86.84 577.582 87.192 576.515 87.192C575.342 87.192 574.424 86.808 573.763 86.04C573.112 85.272 572.787 84.216 572.787 82.872C572.787 81.9973 572.926 81.224 573.203 80.552C573.491 79.8693 573.896 79.336 574.419 78.952C574.952 78.568 575.576 78.376 576.291 78.376C577.411 78.376 578.27 78.744 578.867 79.48C579.464 80.216 579.763 81.2347 579.763 82.536ZM578.307 82.104C578.307 81.272 578.142 80.6373 577.811 80.2C577.48 79.7627 576.984 79.544 576.323 79.544C575.118 79.544 574.462 80.4293 574.355 82.2H578.307V82.104ZM594.604 87H593.164L592.78 83.016C592.737 82.6 592.711 82.1413 592.7 81.64C592.689 81.128 592.684 80.5787 592.684 79.992L590.764 86.072H589.372L587.58 80.008C587.58 81.416 587.559 82.4133 587.516 83L587.212 87H585.788L586.54 78.568H588.444L590.092 84.6L591.9 78.568H593.836L594.604 87ZM603.451 82.536C603.451 82.7813 603.44 83.032 603.419 83.288H598.043C598.107 84.216 598.341 84.8987 598.747 85.336C599.152 85.7733 599.675 85.992 600.315 85.992C600.72 85.992 601.093 85.9333 601.435 85.816C601.776 85.6987 602.133 85.512 602.507 85.256L603.147 86.136C602.251 86.84 601.269 87.192 600.203 87.192C599.029 87.192 598.112 86.808 597.451 86.04C596.8 85.272 596.475 84.216 596.475 82.872C596.475 81.9973 596.613 81.224 596.891 80.552C597.179 79.8693 597.584 79.336 598.107 78.952C598.64 78.568 599.264 78.376 599.979 78.376C601.099 78.376 601.957 78.744 602.555 79.48C603.152 80.216 603.451 81.2347 603.451 82.536ZM601.995 82.104C601.995 81.272 601.829 80.6373 601.499 80.2C601.168 79.7627 600.672 79.544 600.011 79.544C598.805 79.544 598.149 80.4293 598.043 82.2H601.995V82.104ZM608.873 78.376C609.375 78.376 609.833 78.4507 610.249 78.6C610.665 78.7387 611.065 78.968 611.449 79.288L610.745 80.216C610.447 80.0027 610.153 79.848 609.865 79.752C609.588 79.6453 609.279 79.592 608.937 79.592C608.255 79.592 607.721 79.864 607.337 80.408C606.964 80.952 606.777 81.7573 606.777 82.824C606.777 83.8907 606.964 84.68 607.337 85.192C607.711 85.6933 608.244 85.944 608.937 85.944C609.268 85.944 609.572 85.896 609.849 85.8C610.127 85.6933 610.436 85.528 610.777 85.304L611.449 86.264C610.681 86.8827 609.823 87.192 608.873 87.192C607.732 87.192 606.831 86.808 606.169 86.04C605.519 85.272 605.193 84.2107 605.193 82.856C605.193 81.96 605.343 81.176 605.641 80.504C605.94 79.832 606.361 79.3093 606.905 78.936C607.46 78.5627 608.116 78.376 608.873 78.376ZM619.138 78.568L618.962 79.768H616.258V87H614.786V79.768H612.002V78.568H619.138ZM623.422 78.376C624.606 78.376 625.524 78.7707 626.174 79.56C626.836 80.3493 627.166 81.4213 627.166 82.776C627.166 83.6507 627.017 84.424 626.718 85.096C626.42 85.7573 625.988 86.2747 625.422 86.648C624.857 87.0107 624.185 87.192 623.406 87.192C622.222 87.192 621.3 86.7973 620.638 86.008C619.977 85.2187 619.646 84.1467 619.646 82.792C619.646 81.9173 619.796 81.1493 620.094 80.488C620.393 79.816 620.825 79.2987 621.39 78.936C621.956 78.5627 622.633 78.376 623.422 78.376ZM623.422 79.56C621.961 79.56 621.23 80.6373 621.23 82.792C621.23 84.936 621.956 86.008 623.406 86.008C624.857 86.008 625.582 84.9307 625.582 82.776C625.582 80.632 624.862 79.56 623.422 79.56ZM634.526 87V79.768H631.07V87H629.598V78.568H635.998V87H634.526ZM642.204 78.376C643.388 78.376 644.305 78.7707 644.956 79.56C645.617 80.3493 645.948 81.4213 645.948 82.776C645.948 83.6507 645.798 84.424 645.5 85.096C645.201 85.7573 644.769 86.2747 644.204 86.648C643.638 87.0107 642.966 87.192 642.188 87.192C641.004 87.192 640.081 86.7973 639.42 86.008C638.758 85.2187 638.428 84.1467 638.428 82.792C638.428 81.9173 638.577 81.1493 638.876 80.488C639.174 79.816 639.606 79.2987 640.172 78.936C640.737 78.5627 641.414 78.376 642.204 78.376ZM642.204 79.56C640.742 79.56 640.012 80.6373 640.012 82.792C640.012 84.936 640.737 86.008 642.188 86.008C643.638 86.008 644.364 84.9307 644.364 82.776C644.364 80.632 643.644 79.56 642.204 79.56ZM654.399 78.568V87H652.927V79.768H650.319L650.079 82.584C649.983 83.7253 649.86 84.5787 649.711 85.144C649.572 85.7093 649.348 86.1467 649.039 86.456C648.74 86.7547 648.282 87 647.663 87.192L647.295 86.024C647.658 85.896 647.914 85.7307 648.063 85.528C648.212 85.3253 648.324 85.016 648.399 84.6C648.474 84.184 648.554 83.4587 648.639 82.424L648.975 78.568H654.399ZM660.61 78.376C661.794 78.376 662.711 78.7707 663.362 79.56C664.023 80.3493 664.354 81.4213 664.354 82.776C664.354 83.6507 664.205 84.424 663.906 85.096C663.607 85.7573 663.175 86.2747 662.61 86.648C662.045 87.0107 661.373 87.192 660.594 87.192C659.41 87.192 658.487 86.7973 657.826 86.008C657.165 85.2187 656.834 84.1467 656.834 82.792C656.834 81.9173 656.983 81.1493 657.282 80.488C657.581 79.816 658.013 79.2987 658.578 78.936C659.143 78.5627 659.821 78.376 660.61 78.376ZM660.61 79.56C659.149 79.56 658.418 80.6373 658.418 82.792C658.418 84.936 659.143 86.008 660.594 86.008C662.045 86.008 662.77 84.9307 662.77 82.776C662.77 80.632 662.05 79.56 660.61 79.56ZM676.005 78.568L673.893 82.52L676.309 87H674.693L672.693 83.176H671.573V87H670.165V83.176H669.061L667.045 87H665.445L667.861 82.52L665.749 78.568H667.285L669.045 82.024H670.165V78.568H671.573V82.024H672.709L674.485 78.568H676.005ZM684.372 82.536C684.372 82.7813 684.362 83.032 684.34 83.288H678.964C679.028 84.216 679.263 84.8987 679.668 85.336C680.074 85.7733 680.596 85.992 681.236 85.992C681.642 85.992 682.015 85.9333 682.356 85.816C682.698 85.6987 683.055 85.512 683.428 85.256L684.068 86.136C683.172 86.84 682.191 87.192 681.124 87.192C679.951 87.192 679.034 86.808 678.372 86.04C677.722 85.272 677.396 84.216 677.396 82.872C677.396 81.9973 677.535 81.224 677.812 80.552C678.1 79.8693 678.506 79.336 679.028 78.952C679.562 78.568 680.186 78.376 680.9 78.376C682.02 78.376 682.879 78.744 683.476 79.48C684.074 80.216 684.372 81.2347 684.372 82.536ZM682.916 82.104C682.916 81.272 682.751 80.6373 682.42 80.2C682.09 79.7627 681.594 79.544 680.932 79.544C679.727 79.544 679.071 80.4293 678.964 82.2H682.916V82.104ZM691.699 87V83.288H688.195V87H686.723V78.568H688.195V82.104H691.699V78.568H693.171V87H691.699ZM702.767 87H701.312V83.192C701.312 82.552 701.333 81.944 701.376 81.368C701.418 80.792 701.456 80.4133 701.488 80.232L697.952 87H696.208V78.568H697.664V82.376C697.664 82.9413 697.642 83.528 697.6 84.136C697.557 84.7333 697.525 85.1173 697.504 85.288L700.992 78.568H702.767V87ZM712.169 82.536C712.169 82.7813 712.159 83.032 712.137 83.288H706.761C706.825 84.216 707.06 84.8987 707.465 85.336C707.871 85.7733 708.393 85.992 709.033 85.992C709.439 85.992 709.812 85.9333 710.153 85.816C710.495 85.6987 710.852 85.512 711.225 85.256L711.865 86.136C710.969 86.84 709.988 87.192 708.921 87.192C707.748 87.192 706.831 86.808 706.169 86.04C705.519 85.272 705.193 84.216 705.193 82.872C705.193 81.9973 705.332 81.224 705.609 80.552C705.897 79.8693 706.303 79.336 706.825 78.952C707.359 78.568 707.983 78.376 708.697 78.376C709.817 78.376 710.676 78.744 711.273 79.48C711.871 80.216 712.169 81.2347 712.169 82.536ZM710.713 82.104C710.713 81.272 710.548 80.6373 710.217 80.2C709.887 79.7627 709.391 79.544 708.729 79.544C707.524 79.544 706.868 80.4293 706.761 82.2H710.713V82.104Z" fill="white"/>
<path class="animated fadeIn delay-4s" d="M297.684 225.048L301.044 231H299.316L296.772 226.12L294.196 231H292.564L295.876 225.128L292.852 219.976H294.58L296.804 224.12L299.044 219.976H300.676L297.684 225.048ZM308.216 229.032C308.216 229.373 308.274 229.629 308.392 229.8C308.509 229.96 308.685 230.083 308.92 230.168L308.584 231.192C308.146 231.139 307.794 231.016 307.528 230.824C307.261 230.632 307.064 230.333 306.936 229.928C306.37 230.771 305.533 231.192 304.424 231.192C303.592 231.192 302.936 230.957 302.456 230.488C301.976 230.019 301.736 229.405 301.736 228.648C301.736 227.752 302.056 227.064 302.696 226.584C303.346 226.104 304.264 225.864 305.448 225.864H306.744V225.24C306.744 224.643 306.6 224.216 306.312 223.96C306.024 223.704 305.581 223.576 304.984 223.576C304.365 223.576 303.608 223.725 302.712 224.024L302.344 222.952C303.389 222.568 304.36 222.376 305.256 222.376C306.248 222.376 306.989 222.621 307.48 223.112C307.97 223.592 308.216 224.28 308.216 225.176V229.032ZM304.76 230.088C305.602 230.088 306.264 229.651 306.744 228.776V226.84H305.64C304.082 226.84 303.304 227.416 303.304 228.568C303.304 229.069 303.426 229.448 303.672 229.704C303.917 229.96 304.28 230.088 304.76 230.088ZM315.111 222.376C316.188 222.376 316.977 222.76 317.479 223.528C317.98 224.296 318.231 225.379 318.231 226.776C318.231 228.099 317.943 229.165 317.367 229.976C316.791 230.787 315.975 231.192 314.919 231.192C313.98 231.192 313.244 230.872 312.711 230.232V234.232L311.239 234.408V222.568H312.503L312.615 223.704C312.924 223.277 313.297 222.952 313.735 222.728C314.172 222.493 314.631 222.376 315.111 222.376ZM314.567 229.992C315.953 229.992 316.647 228.92 316.647 226.776C316.647 224.621 316.012 223.544 314.743 223.544C314.327 223.544 313.948 223.667 313.607 223.912C313.265 224.157 312.967 224.472 312.711 224.856V228.968C312.924 229.299 313.191 229.555 313.511 229.736C313.831 229.907 314.183 229.992 314.567 229.992ZM323.331 225.288C324.589 225.288 325.501 225.533 326.067 226.024C326.632 226.515 326.915 227.213 326.915 228.12C326.915 229.069 326.595 229.789 325.955 230.28C325.325 230.76 324.541 231 323.603 231H320.739V222.568H322.211V225.288H323.331ZM323.475 229.848C324.072 229.848 324.531 229.715 324.851 229.448C325.181 229.181 325.347 228.739 325.347 228.12C325.347 227.533 325.192 227.101 324.883 226.824C324.584 226.547 324.061 226.408 323.315 226.408H322.211V229.848H323.475ZM335.309 222.568L332.749 226.472L335.613 231H333.869L331.533 227.112H330.461V231H328.989V222.568H330.461V225.96H331.565L333.693 222.568H335.309ZM340.313 222.376C341.497 222.376 342.414 222.771 343.065 223.56C343.726 224.349 344.057 225.421 344.057 226.776C344.057 227.651 343.908 228.424 343.609 229.096C343.31 229.757 342.878 230.275 342.313 230.648C341.748 231.011 341.076 231.192 340.297 231.192C339.113 231.192 338.19 230.797 337.529 230.008C336.868 229.219 336.537 228.147 336.537 226.792C336.537 225.917 336.686 225.149 336.985 224.488C337.284 223.816 337.716 223.299 338.281 222.936C338.846 222.563 339.524 222.376 340.313 222.376ZM340.313 223.56C338.852 223.56 338.121 224.637 338.121 226.792C338.121 228.936 338.846 230.008 340.297 230.008C341.748 230.008 342.473 228.931 342.473 226.776C342.473 224.632 341.753 223.56 340.313 223.56ZM350.937 226.424C352.366 226.563 353.081 227.224 353.081 228.408C353.081 229.293 352.755 229.949 352.105 230.376C351.465 230.792 350.606 231 349.529 231H346.489V222.68C347.481 222.477 348.403 222.376 349.257 222.376C350.302 222.376 351.129 222.573 351.737 222.968C352.345 223.363 352.649 223.928 352.649 224.664C352.649 225.144 352.505 225.533 352.217 225.832C351.929 226.131 351.502 226.328 350.937 226.424ZM349.273 223.512C348.825 223.512 348.387 223.544 347.961 223.608V225.992H349.545C350.057 225.992 350.451 225.896 350.729 225.704C351.006 225.512 351.145 225.187 351.145 224.728C351.145 224.301 350.99 223.992 350.681 223.8C350.371 223.608 349.902 223.512 349.273 223.512ZM349.529 229.848C350.158 229.848 350.649 229.741 351.001 229.528C351.353 229.315 351.529 228.931 351.529 228.376C351.529 227.917 351.379 227.587 351.081 227.384C350.782 227.181 350.275 227.08 349.561 227.08H347.961V229.848H349.529Z" fill="#FFFF4C"/>
</g>
<defs>
<clipPath id="clip0">
<rect width="1001" height="496" fill="white"/>
</clipPath>
</defs>
</svg>
