<svg width="1001" height="495" viewBox="0 0 1001 495" fill="none" xmlns="http://www.w3.org/2000/svg">
<g clip-path="url(#clip0)">
<g opacity="0.29827">
<path opacity="0.29827" d="M1008.08 162.448L443.182 -357.858V-748.19L28.1096 -771C24.9043 -763.456 4.36709 -741.714 7.57176 -729.596C11.43 -715.102 30.8387 -719.735 36.4776 -710.409C43.0661 -699.42 31.7291 -654.749 28.3457 -641.86C21.8759 -617.445 7.09676 -597.665 2.82235 -573.25C-4.35982 -532.263 10.1824 -535.53 37.7242 -509.927C84.141 -466.742 46.9244 -421.952 58.6176 -371.223C68.1146 -329.878 109.605 -308.554 124.8 -267.211C136.553 -235.37 152.697 -227.233 177.746 -203.947C177.153 -218.084 164.51 -259.785 188.253 -256.102C211.817 -252.478 202.736 -217.669 207.247 -203.115C211.045 -190.997 237.933 -166.761 215.616 -155.593C208.196 -151.91 187.066 -166.582 178.577 -170.503C184.572 -151.791 180.774 -132.367 190.271 -114.487C201.608 -93.162 213.835 -101.359 228.853 -89.7754C244.344 -77.8355 242.683 -64.1137 235.797 -46.0554C228.615 -27.2247 221.196 -30.1352 232.592 -7.44342C240.843 8.95119 254.85 29.7421 266.9 42.2164C273.904 49.4634 281.502 51.1267 288.506 60.3932C294.323 68.1155 292.067 78.2142 299.012 85.1638C310.883 97.1037 331.006 97.282 340.384 112.904C350.831 130.309 338.96 143.437 369.706 141.833C371.309 176.643 377.897 208.185 377.541 242.994C394.695 249.825 422.414 241.687 440.399 238.063C458.266 262.18 481.355 245.429 501.774 258.558C510.678 264.26 508.837 278.517 514.239 283.506C525.339 293.723 533.529 287.308 547.301 290.872C557.51 293.486 565.404 300.97 575.138 303.703C584.338 306.257 599.475 300.258 606.301 308.396C614.492 318.138 600.78 335.958 613.127 343.799C623.395 350.333 638.115 334.77 648.088 337.027C659.721 339.7 693.079 370.174 701.271 380.212C710.59 391.677 719.969 413.062 725.25 427.793C733.501 450.841 732.373 462.127 749.408 478.998C760.27 489.75 749.942 490.522 767.63 493.67C779.204 495.749 794.518 487.374 806.212 486.067C830.549 483.394 855.122 488.027 879.102 483.453C901.421 479.176 922.729 472.166 945.64 468.899C965.465 466.048 1000.37 468.246 1017.94 458.801C1036.99 448.643 1038.71 425.654 1011.17 429.932C1008.97 415.26 1018.77 395.003 1007.85 384.847C1023.04 364.056 1028.56 349.384 1030.93 323.959C1032 312.792 1032.48 300.436 1038 291.05C1043.4 281.783 1058.59 276.259 1061.56 268.299C1066.13 255.943 1058.83 250.419 1053.25 243.528C1049.69 239.073 1039.54 241.212 1036.63 237.291C1031.23 230.103 1036.57 222.678 1033.6 215.431C1024.94 194.462 1014.61 186.205 1008.08 162.444C1008.26 166.424 1008.44 170.463 1008.2 174.384" stroke="white" stroke-width="2" stroke-linecap="round" stroke-linejoin="round"/>
</g>
<path class="line-animation line-animation-2" d="M729.065 89.9026C729.168 114.804 750.837 115.513 771.212 124.251C777.25 126.84 780.279 133.695 777.157 139.681C770.445 152.553 754.052 157.22 734.121 164.619C720.787 175.108 675.058 176.226 676.958 176.874C656.167 193.554 734.121 213.5 705.977 224.618C692.433 227.337 707.596 226.727 695.847 227.175C618.909 230.104 677.937 274.214 692.433 285.509C696.5 294.5 696 291.5 698.904 297.5C710.445 311.349 730.302 296.151 733.725 299.373C745.068 310.049 700.334 310.602 698.904 330.701C698.465 336.868 688.5 336.5 683 342.5C679 347.5 665.859 352.719 666.632 357.5" stroke="white" stroke-width="2"/>
<path fill-rule="evenodd" clip-rule="evenodd" d="M662.5 366C666.09 366 669 363.09 669 359.5C669 355.91 666.09 353 662.5 353C658.91 353 656 355.91 656 359.5C656 363.09 658.91 366 662.5 366Z" fill="#4AF6CD"/>
<path fill-rule="evenodd" clip-rule="evenodd" d="M575 322C576.657 322 578 320.657 578 319C578 317.343 576.657 316 575 316C573.343 316 572 317.343 572 319C572 320.657 573.343 322 575 322Z" fill="#4AF6CD"/>
<path fill-rule="evenodd" clip-rule="evenodd" d="M725 470C726.657 470 728 468.657 728 467C728 465.343 726.657 464 725 464C723.343 464 722 465.343 722 467C722 468.657 723.343 470 725 470Z" fill="#4AF6CD"/>
<path fill-rule="evenodd" clip-rule="evenodd" d="M365 227C366.657 227 368 225.657 368 224C368 222.343 366.657 221 365 221C363.343 221 362 222.343 362 224C362 225.657 363.343 227 365 227Z" fill="#4AF6CD"/>
<path fill-rule="evenodd" clip-rule="evenodd" d="M729.5 90C733.09 90 736 87.0899 736 83.5C736 79.9101 733.09 77 729.5 77C725.91 77 723 79.9101 723 83.5C723 87.0899 725.91 90 729.5 90Z" fill="#4AF6CD"/>
<path d="M526.409 74.976L526.249 76.272H523.193V86H521.673V76.272H518.537V74.976H526.409ZM533.576 81.536C533.576 81.7813 533.565 82.032 533.544 82.288H528.168C528.232 83.216 528.466 83.8987 528.872 84.336C529.277 84.7733 529.8 84.992 530.44 84.992C530.845 84.992 531.218 84.9333 531.56 84.816C531.901 84.6987 532.258 84.512 532.632 84.256L533.272 85.136C532.376 85.84 531.394 86.192 530.328 86.192C529.154 86.192 528.237 85.808 527.576 85.04C526.925 84.272 526.6 83.216 526.6 81.872C526.6 80.9973 526.738 80.224 527.016 79.552C527.304 78.8693 527.709 78.336 528.232 77.952C528.765 77.568 529.389 77.376 530.104 77.376C531.224 77.376 532.082 77.744 532.68 78.48C533.277 79.216 533.576 80.2347 533.576 81.536ZM532.12 81.104C532.12 80.272 531.954 79.6373 531.624 79.2C531.293 78.7627 530.797 78.544 530.136 78.544C528.93 78.544 528.274 79.4293 528.168 81.2H532.12V81.104ZM542.246 77.568L539.686 81.472L542.55 86H540.806L538.47 82.112H537.398V86H535.926V77.568H537.398V80.96H538.502L540.63 77.568H542.246ZM547.599 86.048C547.268 87.0293 546.804 87.8027 546.207 88.368C545.62 88.944 544.778 89.2907 543.679 89.408L543.519 88.256C544.074 88.16 544.516 88.0213 544.847 87.84C545.178 87.6587 545.439 87.424 545.631 87.136C545.834 86.8587 546.02 86.48 546.191 86H545.695L542.863 77.568H544.431L546.687 84.928L548.895 77.568H550.415L547.599 86.048ZM561.794 84.816H563.074V88.4H561.874L561.634 86H552.098V77.568H553.538V84.816H556.242V77.568H557.65V84.816H560.354V77.568H561.794V84.816ZM571.044 81.536C571.044 81.7813 571.034 82.032 571.012 82.288H565.636C565.7 83.216 565.935 83.8987 566.34 84.336C566.746 84.7733 567.268 84.992 567.908 84.992C568.314 84.992 568.687 84.9333 569.028 84.816C569.37 84.6987 569.727 84.512 570.1 84.256L570.74 85.136C569.844 85.84 568.863 86.192 567.796 86.192C566.623 86.192 565.706 85.808 565.044 85.04C564.394 84.272 564.068 83.216 564.068 81.872C564.068 80.9973 564.207 80.224 564.484 79.552C564.772 78.8693 565.178 78.336 565.7 77.952C566.234 77.568 566.858 77.376 567.572 77.376C568.692 77.376 569.551 77.744 570.148 78.48C570.746 79.216 571.044 80.2347 571.044 81.536ZM569.588 81.104C569.588 80.272 569.423 79.6373 569.092 79.2C568.762 78.7627 568.266 78.544 567.604 78.544C566.399 78.544 565.743 79.4293 565.636 81.2H569.588V81.104ZM579.763 81.536C579.763 81.7813 579.752 82.032 579.731 82.288H574.355C574.419 83.216 574.654 83.8987 575.059 84.336C575.464 84.7733 575.987 84.992 576.627 84.992C577.032 84.992 577.406 84.9333 577.747 84.816C578.088 84.6987 578.446 84.512 578.819 84.256L579.459 85.136C578.563 85.84 577.582 86.192 576.515 86.192C575.342 86.192 574.424 85.808 573.763 85.04C573.112 84.272 572.787 83.216 572.787 81.872C572.787 80.9973 572.926 80.224 573.203 79.552C573.491 78.8693 573.896 78.336 574.419 77.952C574.952 77.568 575.576 77.376 576.291 77.376C577.411 77.376 578.27 77.744 578.867 78.48C579.464 79.216 579.763 80.2347 579.763 81.536ZM578.307 81.104C578.307 80.272 578.142 79.6373 577.811 79.2C577.48 78.7627 576.984 78.544 576.323 78.544C575.118 78.544 574.462 79.4293 574.355 81.2H578.307V81.104ZM594.604 86H593.164L592.78 82.016C592.737 81.6 592.711 81.1413 592.7 80.64C592.689 80.128 592.684 79.5787 592.684 78.992L590.764 85.072H589.372L587.58 79.008C587.58 80.416 587.559 81.4133 587.516 82L587.212 86H585.788L586.54 77.568H588.444L590.092 83.6L591.9 77.568H593.836L594.604 86ZM603.451 81.536C603.451 81.7813 603.44 82.032 603.419 82.288H598.043C598.107 83.216 598.341 83.8987 598.747 84.336C599.152 84.7733 599.675 84.992 600.315 84.992C600.72 84.992 601.093 84.9333 601.435 84.816C601.776 84.6987 602.133 84.512 602.507 84.256L603.147 85.136C602.251 85.84 601.269 86.192 600.203 86.192C599.029 86.192 598.112 85.808 597.451 85.04C596.8 84.272 596.475 83.216 596.475 81.872C596.475 80.9973 596.613 80.224 596.891 79.552C597.179 78.8693 597.584 78.336 598.107 77.952C598.64 77.568 599.264 77.376 599.979 77.376C601.099 77.376 601.957 77.744 602.555 78.48C603.152 79.216 603.451 80.2347 603.451 81.536ZM601.995 81.104C601.995 80.272 601.829 79.6373 601.499 79.2C601.168 78.7627 600.672 78.544 600.011 78.544C598.805 78.544 598.149 79.4293 598.043 81.2H601.995V81.104ZM608.873 77.376C609.375 77.376 609.833 77.4507 610.249 77.6C610.665 77.7387 611.065 77.968 611.449 78.288L610.745 79.216C610.447 79.0027 610.153 78.848 609.865 78.752C609.588 78.6453 609.279 78.592 608.937 78.592C608.255 78.592 607.721 78.864 607.337 79.408C606.964 79.952 606.777 80.7573 606.777 81.824C606.777 82.8907 606.964 83.68 607.337 84.192C607.711 84.6933 608.244 84.944 608.937 84.944C609.268 84.944 609.572 84.896 609.849 84.8C610.127 84.6933 610.436 84.528 610.777 84.304L611.449 85.264C610.681 85.8827 609.823 86.192 608.873 86.192C607.732 86.192 606.831 85.808 606.169 85.04C605.519 84.272 605.193 83.2107 605.193 81.856C605.193 80.96 605.343 80.176 605.641 79.504C605.94 78.832 606.361 78.3093 606.905 77.936C607.46 77.5627 608.116 77.376 608.873 77.376ZM619.138 77.568L618.962 78.768H616.258V86H614.786V78.768H612.002V77.568H619.138ZM623.422 77.376C624.606 77.376 625.524 77.7707 626.174 78.56C626.836 79.3493 627.166 80.4213 627.166 81.776C627.166 82.6507 627.017 83.424 626.718 84.096C626.42 84.7573 625.988 85.2747 625.422 85.648C624.857 86.0107 624.185 86.192 623.406 86.192C622.222 86.192 621.3 85.7973 620.638 85.008C619.977 84.2187 619.646 83.1467 619.646 81.792C619.646 80.9173 619.796 80.1493 620.094 79.488C620.393 78.816 620.825 78.2987 621.39 77.936C621.956 77.5627 622.633 77.376 623.422 77.376ZM623.422 78.56C621.961 78.56 621.23 79.6373 621.23 81.792C621.23 83.936 621.956 85.008 623.406 85.008C624.857 85.008 625.582 83.9307 625.582 81.776C625.582 79.632 624.862 78.56 623.422 78.56ZM634.526 86V78.768H631.07V86H629.598V77.568H635.998V86H634.526ZM642.204 77.376C643.388 77.376 644.305 77.7707 644.956 78.56C645.617 79.3493 645.948 80.4213 645.948 81.776C645.948 82.6507 645.798 83.424 645.5 84.096C645.201 84.7573 644.769 85.2747 644.204 85.648C643.638 86.0107 642.966 86.192 642.188 86.192C641.004 86.192 640.081 85.7973 639.42 85.008C638.758 84.2187 638.428 83.1467 638.428 81.792C638.428 80.9173 638.577 80.1493 638.876 79.488C639.174 78.816 639.606 78.2987 640.172 77.936C640.737 77.5627 641.414 77.376 642.204 77.376ZM642.204 78.56C640.742 78.56 640.012 79.6373 640.012 81.792C640.012 83.936 640.737 85.008 642.188 85.008C643.638 85.008 644.364 83.9307 644.364 81.776C644.364 79.632 643.644 78.56 642.204 78.56ZM654.399 77.568V86H652.927V78.768H650.319L650.079 81.584C649.983 82.7253 649.86 83.5787 649.711 84.144C649.572 84.7093 649.348 85.1467 649.039 85.456C648.74 85.7547 648.282 86 647.663 86.192L647.295 85.024C647.658 84.896 647.914 84.7307 648.063 84.528C648.212 84.3253 648.324 84.016 648.399 83.6C648.474 83.184 648.554 82.4587 648.639 81.424L648.975 77.568H654.399ZM660.61 77.376C661.794 77.376 662.711 77.7707 663.362 78.56C664.023 79.3493 664.354 80.4213 664.354 81.776C664.354 82.6507 664.205 83.424 663.906 84.096C663.607 84.7573 663.175 85.2747 662.61 85.648C662.045 86.0107 661.373 86.192 660.594 86.192C659.41 86.192 658.487 85.7973 657.826 85.008C657.165 84.2187 656.834 83.1467 656.834 81.792C656.834 80.9173 656.983 80.1493 657.282 79.488C657.581 78.816 658.013 78.2987 658.578 77.936C659.143 77.5627 659.821 77.376 660.61 77.376ZM660.61 78.56C659.149 78.56 658.418 79.6373 658.418 81.792C658.418 83.936 659.143 85.008 660.594 85.008C662.045 85.008 662.77 83.9307 662.77 81.776C662.77 79.632 662.05 78.56 660.61 78.56ZM676.005 77.568L673.893 81.52L676.309 86H674.693L672.693 82.176H671.573V86H670.165V82.176H669.061L667.045 86H665.445L667.861 81.52L665.749 77.568H667.285L669.045 81.024H670.165V77.568H671.573V81.024H672.709L674.485 77.568H676.005ZM684.372 81.536C684.372 81.7813 684.362 82.032 684.34 82.288H678.964C679.028 83.216 679.263 83.8987 679.668 84.336C680.074 84.7733 680.596 84.992 681.236 84.992C681.642 84.992 682.015 84.9333 682.356 84.816C682.698 84.6987 683.055 84.512 683.428 84.256L684.068 85.136C683.172 85.84 682.191 86.192 681.124 86.192C679.951 86.192 679.034 85.808 678.372 85.04C677.722 84.272 677.396 83.216 677.396 81.872C677.396 80.9973 677.535 80.224 677.812 79.552C678.1 78.8693 678.506 78.336 679.028 77.952C679.562 77.568 680.186 77.376 680.9 77.376C682.02 77.376 682.879 77.744 683.476 78.48C684.074 79.216 684.372 80.2347 684.372 81.536ZM682.916 81.104C682.916 80.272 682.751 79.6373 682.42 79.2C682.09 78.7627 681.594 78.544 680.932 78.544C679.727 78.544 679.071 79.4293 678.964 81.2H682.916V81.104ZM691.699 86V82.288H688.195V86H686.723V77.568H688.195V81.104H691.699V77.568H693.171V86H691.699ZM702.767 86H701.312V82.192C701.312 81.552 701.333 80.944 701.376 80.368C701.418 79.792 701.456 79.4133 701.488 79.232L697.952 86H696.208V77.568H697.664V81.376C697.664 81.9413 697.642 82.528 697.6 83.136C697.557 83.7333 697.525 84.1173 697.504 84.288L700.992 77.568H702.767V86ZM712.169 81.536C712.169 81.7813 712.159 82.032 712.137 82.288H706.761C706.825 83.216 707.06 83.8987 707.465 84.336C707.871 84.7733 708.393 84.992 709.033 84.992C709.439 84.992 709.812 84.9333 710.153 84.816C710.495 84.6987 710.852 84.512 711.225 84.256L711.865 85.136C710.969 85.84 709.988 86.192 708.921 86.192C707.748 86.192 706.831 85.808 706.169 85.04C705.519 84.272 705.193 83.216 705.193 81.872C705.193 80.9973 705.332 80.224 705.609 79.552C705.897 78.8693 706.303 78.336 706.825 77.952C707.359 77.568 707.983 77.376 708.697 77.376C709.817 77.376 710.676 77.744 711.273 78.48C711.871 79.216 712.169 80.2347 712.169 81.536ZM710.713 81.104C710.713 80.272 710.548 79.6373 710.217 79.2C709.887 78.7627 709.391 78.544 708.729 78.544C707.524 78.544 706.868 79.4293 706.761 81.2H710.713V81.104Z" fill="white"/>
<path d="M576.557 360V354.832H571.917V360H570.397V348.976H571.917V353.584H576.557V348.976H578.077V360H576.557ZM583.784 354.288C585.043 354.288 585.955 354.533 586.52 355.024C587.085 355.515 587.368 356.213 587.368 357.12C587.368 358.069 587.048 358.789 586.408 359.28C585.779 359.76 584.995 360 584.056 360H581.192V351.568H582.664V354.288H583.784ZM583.928 358.848C584.525 358.848 584.984 358.715 585.304 358.448C585.635 358.181 585.8 357.739 585.8 357.12C585.8 356.533 585.645 356.101 585.336 355.824C585.037 355.547 584.515 355.408 583.768 355.408H582.664V358.848H583.928ZM595.954 351.376C596.69 351.376 597.33 351.557 597.874 351.92C598.418 352.283 598.834 352.795 599.122 353.456C599.421 354.117 599.57 354.891 599.57 355.776C599.57 356.608 599.426 357.36 599.138 358.032C598.861 358.693 598.445 359.221 597.89 359.616C597.346 360 596.695 360.192 595.938 360.192C594.914 360.192 594.093 359.835 593.474 359.12C592.855 358.395 592.503 357.451 592.418 356.288H590.914V360H589.442V351.568H590.914V355.104H592.434C592.551 354.005 592.919 353.109 593.538 352.416C594.167 351.723 594.973 351.376 595.954 351.376ZM595.938 359.008C596.663 359.008 597.186 358.736 597.506 358.192C597.826 357.648 597.986 356.843 597.986 355.776C597.986 354.752 597.81 353.963 597.458 353.408C597.106 352.853 596.605 352.576 595.954 352.576C594.599 352.576 593.922 353.648 593.922 355.792C593.922 356.816 594.093 357.611 594.434 358.176C594.775 358.731 595.277 359.008 595.938 359.008ZM601.444 355.616V354.368H605.972V355.616H601.444ZM616.266 360H614.746V354.624C614.746 353.376 614.815 352.059 614.954 350.672L610.49 360H608.538V348.976H610.058V354.352C610.058 355.845 609.988 357.179 609.85 358.352L614.362 348.976H616.266V360ZM612.378 347.872C611.727 347.872 611.178 347.707 610.73 347.376C610.292 347.035 610.042 346.576 609.978 346L610.954 345.792C611.06 346.133 611.226 346.379 611.45 346.528C611.684 346.677 611.994 346.752 612.378 346.752C612.762 346.752 613.076 346.677 613.322 346.528C613.567 346.368 613.743 346.123 613.85 345.792L614.826 346C614.762 346.576 614.5 347.035 614.042 347.376C613.594 347.707 613.039 347.872 612.378 347.872ZM622.547 351.376C623.731 351.376 624.649 351.771 625.299 352.56C625.961 353.349 626.291 354.421 626.291 355.776C626.291 356.651 626.142 357.424 625.843 358.096C625.545 358.757 625.113 359.275 624.547 359.648C623.982 360.011 623.31 360.192 622.531 360.192C621.347 360.192 620.425 359.797 619.763 359.008C619.102 358.219 618.771 357.147 618.771 355.792C618.771 354.917 618.921 354.149 619.219 353.488C619.518 352.816 619.95 352.299 620.515 351.936C621.081 351.563 621.758 351.376 622.547 351.376ZM622.547 352.56C621.086 352.56 620.355 353.637 620.355 355.792C620.355 357.936 621.081 359.008 622.531 359.008C623.982 359.008 624.707 357.931 624.707 355.776C624.707 353.632 623.987 352.56 622.547 352.56ZM632.595 351.376C633.672 351.376 634.462 351.76 634.963 352.528C635.464 353.296 635.715 354.379 635.715 355.776C635.715 357.099 635.427 358.165 634.851 358.976C634.275 359.787 633.459 360.192 632.403 360.192C631.464 360.192 630.728 359.872 630.195 359.232V363.232L628.723 363.408V351.568H629.987L630.099 352.704C630.408 352.277 630.782 351.952 631.219 351.728C631.656 351.493 632.115 351.376 632.595 351.376ZM632.051 358.992C633.438 358.992 634.131 357.92 634.131 355.776C634.131 353.621 633.496 352.544 632.227 352.544C631.811 352.544 631.432 352.667 631.091 352.912C630.75 353.157 630.451 353.472 630.195 353.856V357.968C630.408 358.299 630.675 358.555 630.995 358.736C631.315 358.907 631.667 358.992 632.051 358.992ZM644.543 351.568L641.983 355.472L644.847 360H643.103L640.767 356.112H639.695V360H638.223V351.568H639.695V354.96H640.799L642.927 351.568H644.543Z" fill="#FFFF4C"/>
</g>
<defs>
<clipPath id="clip0">
<rect width="1001" height="496" fill="white" transform="translate(0 -1)"/>
</clipPath>
</defs>
</svg>
