<svg width="366" height="366" viewBox="0 0 366 366" fill="none" xmlns="http://www.w3.org/2000/svg">
<g clip-path="url(#clip0)">
<path d="M57.4 181.8C57.4 176.101 53.6 172.2 47.8 172.2H9.6C3.9 172.2 0 177.9 0 181.8C0 187.5 3.8 191.401 9.6 191.401H47.8C53.6 191.3 57.4 187.5 57.4 181.8Z" fill="#4AF6CD"/>
<path d="M283.101 93.8L309.9 67C313.7 63.2 313.7 57.4 309.9 53.6C306.1 49.8 300.299 49.8 296.5 53.6L269.7 80.4C265.9 84.2 265.9 90 269.7 93.8C273.601 97.6 281.2 97.6 283.101 93.8Z" fill="#4AF6CD"/>
<path d="M80.4 269.7L53.6 296.5C49.8 300.3 49.8 306.101 53.6 309.9C57.4 313.7 63.2 313.7 67 309.9L93.8 283.1C97.6 279.299 97.6 273.499 93.8 269.7C90 267.8 84.2 265.9 80.4 269.7Z" fill="#4AF6CD"/>
<path d="M181.8 57.4C187.5 57.4 191.401 53.6 191.401 47.8V9.6C191.401 3.9 187.601 0 181.8 0C178 0 172.2 3.8 172.2 9.6V47.8C172.2 53.6 177.9 57.4 181.8 57.4Z" fill="#4AF6CD"/>
<path d="M80.4 93.8C84.2 97.6 90 97.6 93.8 93.8C97.6 90 97.6 84.2 93.8 80.4L67 53.6C63.2 49.8 57.4 49.8 53.6 53.6C49.8 57.4 49.8 63.2 53.6 67L80.4 93.8Z" fill="#4AF6CD"/>
<path d="M355.8 172.2H317.601C311.901 172.2 308 176 308 181.8C308 187.601 311.8 191.401 317.601 191.401H355.8C361.5 191.401 365.401 187.601 365.401 181.8C365.4 177.9 359.601 172.2 355.8 172.2Z" fill="#4AF6CD"/>
<path d="M181.8 308C176.101 308 172.2 311.8 172.2 317.601V355.8C172.2 361.5 176 365.401 181.8 365.401C187.601 365.401 191.401 361.601 191.401 355.8V317.601C191.3 311.8 187.5 308 181.8 308Z" fill="#4AF6CD"/>
<path d="M283.101 269.7C279.3 265.9 273.5 265.9 269.701 269.7C265.902 273.5 265.901 279.3 269.701 283.1L296.501 309.9C300.301 313.7 306.102 313.7 309.901 309.9C313.7 306.1 313.701 300.299 309.901 296.5L283.101 269.7Z" fill="#4AF6CD"/>
<path d="M181.8 76.6C124.401 76.6 76.6 124.4 76.6 181.8C76.6 239.2 124.4 287 181.8 287C239.2 287 287 239.2 287 181.8C287 124.4 241.101 76.6 181.8 76.6ZM181.8 267.8C134 267.8 95.7 229.601 95.7 181.7C95.7 133.8 133.9 95.6 181.8 95.6C229.7 95.6 267.901 133.8 267.901 181.7C267.9 229.601 229.601 267.8 181.8 267.8Z" fill="#4AF6CD"/>
</g>
<defs>
<clipPath id="clip0">
<rect width="365.4" height="365.4" fill="white"/>
</clipPath>
</defs>
</svg>
