<svg width="461" height="461" viewBox="0 0 461 461" fill="none" xmlns="http://www.w3.org/2000/svg">
<g clip-path="url(#clip0)">
<path d="M276.625 322.788V46.1242C276.625 20.0086 256.616 0 230.5 0C204.385 0 184.376 21.5353 184.376 46.1242V322.709C165.894 336.531 153.68 359.592 153.68 384.181C153.68 427.171 187.51 461.001 230.5 461.001C273.491 461.001 307.32 427.171 307.32 384.181C307.32 359.592 295.026 336.61 276.625 322.788ZM230.5 445.732C196.671 445.732 169.028 418.092 169.028 384.26C169.028 361.199 181.323 341.27 199.724 330.504V46.1242C199.724 29.2495 213.545 15.4283 230.42 15.4283C247.295 15.4283 261.115 29.2495 261.115 46.1242V330.422C279.597 341.19 291.812 361.119 291.812 384.18C291.973 418.01 264.329 445.732 230.5 445.732Z" fill="#4AF6CD"/>
<path d="M245.848 341.19C245.848 339.664 245.848 339.664 245.848 338.138V261.316C245.848 252.075 239.741 245.968 230.5 245.968C221.26 245.968 215.152 252.075 215.152 261.316V338.138C215.152 339.663 215.152 339.663 215.152 341.19C196.671 347.379 184.457 364.253 184.457 384.181C184.457 410.296 204.465 430.305 230.581 430.305C256.696 430.305 276.704 410.296 276.704 384.181C276.625 364.253 264.329 347.379 245.848 341.19Z" fill="#4AF6CD"/>
</g>
<defs>
<clipPath id="clip0">
<rect width="461" height="461" fill="white"/>
</clipPath>
</defs>
</svg>
