<svg width="517" height="420" viewBox="0 0 517 420" fill="none" xmlns="http://www.w3.org/2000/svg">
<g clip-path="url(#clip0)">
<path d="M382.5 306.101H114.7V325.201H382.5C394 325.201 401.6 332.801 401.6 344.301C401.6 355.801 394 363.4 382.5 363.4C371 363.4 363.4 355.799 363.4 344.299H344.3C344.3 365.299 361.499 382.499 382.499 382.499C403.499 382.499 420.698 365.299 420.698 344.299C420.698 323.299 403.5 306.101 382.5 306.101Z" fill="#4AF6CD"/>
<path d="M344.199 191.3C344.199 158.8 319.301 133.9 286.801 133.9C254.301 133.9 229.4 158.8 229.4 191.3H248.6C248.6 170.3 265.801 153.1 286.801 153.1C307.801 153.1 325 170.3 325 191.3C325 212.3 307.801 229.5 286.801 229.5H57.4V248.7H286.9C319.4 248.7 344.199 223.8 344.199 191.3Z" fill="#4AF6CD"/>
<path d="M439.801 133.9C397.699 133.9 363.301 168.3 363.301 210.4H382.401C382.401 177.9 407.301 153 439.801 153C472.301 153 497.199 177.9 497.199 210.4C497.199 242.9 472.301 267.8 439.801 267.8H0V286.9H439.9C482 286.9 516.4 252.5 516.4 210.4C516.4 168.3 481.9 133.9 439.801 133.9Z" fill="#4AF6CD"/>
</g>
<defs>
<clipPath id="clip0">
<rect width="516.4" height="516.4" fill="white"/>
</clipPath>
</defs>
</svg>
